# xmcd CD database file
#
# Track frame offsets:
#	150
#	15870
#	32155
#	46300
#	62863
#	77113
#	94783
#	107905
#	124613
#	141405
#	155668
#	170403
#	182535
#	194858
#	211120
#	222875
#	234470
#	250418
#	263930
#	278333
#	291883
#	306015
#
# Disc length: 4308 seconds
#
# Revision: 0
# Processed by: cddbd v1.5.2PL0 Copyright (c) Steve Scherf et al.
# Submitted via: CDex 1.70beta2
#
DISCID=3e10d216
DTITLE=ChartBreakers - ChartBreakers CGC-528
DYEAR=1900
DGENRE=Country
TTITLE0=Blackhawk - Goodbye Says It All
TTITLE1=Suzy Bogguss - Hey Cinderella
TTITLE2=Billy Ray Cyrus - Words By Heart
TTITLE3=Joe Diffie - In My Own Backyard
TTITLE4=Wynona - Rock Bottom
TTITLE5=Trisha Yearwood - Better Your Heart Than Mine
TTITLE6=John Anderson - I've Got It Made
TTITLE7=Brooks and Dunn - Rock My World (Little Country Girl)
TTITLE8=Mary-Chapin Carpenter - He Thinks He'll Keep Her
TTITLE9=Collin Raye - That's My Story
TTITLE10=Rosanne Cash - My Baby Thinks He's A Train
TTITLE11=Holly Dunn - Are You Ever Gonna Love Me
TTITLE12=Exile - I Could Get Used To You
TTITLE13=Vince Gill - Cinderella
TTITLE14=Highway 101 - Walkin', Talkin', Cryin', Barely...
TTITLE15=George Jones - The One I Loved Back Then
TTITLE16=Hal Ketchum - I Know Where Love Lives
TTITLE17=Little Texas - Some Guys Have All The Love
TTITLE18=Kathy Mattea - Come From The Heart
TTITLE19=Waylon Jennings and Willie Nelson - Good Hearted Woman
TTITLE20=Oak Ridge Boys - Gonna Take A Lot Of River
TTITLE21=Dolly Parton and Keny Rogers - Real Love
EXTD=YEAR: 1900
EXTT0=
EXTT1=
EXTT2=
EXTT3=
EXTT4=
EXTT5=
EXTT6=
EXTT7=
EXTT8=
EXTT9=
EXTT10=
EXTT11=
EXTT12=
EXTT13=
EXTT14=
EXTT15=
EXTT16=
EXTT17=
EXTT18=
EXTT19=
EXTT20=
EXTT21=
PLAYORDER=
